<mxfile host="app.diagrams.net" modified="2024-07-12T17:05:43.940Z" agent="Mozilla/5.0 (Windows NT 10.0; Win64; x64) AppleWebKit/537.36 (KHTML, like Gecko) Chrome/126.0.0.0 Safari/537.36" version="24.6.5" etag="Vn-2msXazwIsZpUt4x7s" type="device">
  <diagram id="pH06LuSvvtd_n76Dy6T_" name="Halaman-1">
    <mxGraphModel dx="1877" dy="522" grid="1" gridSize="10" guides="1" tooltips="1" connect="1" arrows="1" fold="1" page="1" pageScale="1" pageWidth="827" pageHeight="1169" math="0" shadow="0">
      <root>
        <mxCell id="0" />
        <mxCell id="1" parent="0" />
        <mxCell id="cSVIJ6iVD3ClMPK3MHvh-4" value="Kuberneter Cluster" style="swimlane;startSize=30;" vertex="1" parent="1">
          <mxGeometry x="230" y="130" width="510" height="360" as="geometry" />
        </mxCell>
        <mxCell id="cSVIJ6iVD3ClMPK3MHvh-5" value="ArgoCD - Namespace" style="swimlane;startSize=20;" vertex="1" parent="cSVIJ6iVD3ClMPK3MHvh-4">
          <mxGeometry x="20" y="60" width="150" height="140" as="geometry" />
        </mxCell>
        <mxCell id="cSVIJ6iVD3ClMPK3MHvh-6" value="" style="aspect=fixed;sketch=0;html=1;dashed=0;whitespace=wrap;verticalLabelPosition=bottom;verticalAlign=top;fillColor=#2875E2;strokeColor=#ffffff;points=[[0.005,0.63,0],[0.1,0.2,0],[0.9,0.2,0],[0.5,0,0],[0.995,0.63,0],[0.72,0.99,0],[0.5,1,0],[0.28,0.99,0]];shape=mxgraph.kubernetes.icon2;prIcon=pod" vertex="1" parent="cSVIJ6iVD3ClMPK3MHvh-5">
          <mxGeometry x="32.5" y="50" width="50" height="48" as="geometry" />
        </mxCell>
        <mxCell id="cSVIJ6iVD3ClMPK3MHvh-8" value="" style="aspect=fixed;sketch=0;html=1;dashed=0;whitespace=wrap;verticalLabelPosition=bottom;verticalAlign=top;fillColor=#2875E2;strokeColor=#ffffff;points=[[0.005,0.63,0],[0.1,0.2,0],[0.9,0.2,0],[0.5,0,0],[0.995,0.63,0],[0.72,0.99,0],[0.5,1,0],[0.28,0.99,0]];shape=mxgraph.kubernetes.icon2;prIcon=pod" vertex="1" parent="cSVIJ6iVD3ClMPK3MHvh-5">
          <mxGeometry x="67.5" y="50" width="50" height="48" as="geometry" />
        </mxCell>
        <mxCell id="cSVIJ6iVD3ClMPK3MHvh-7" value="" style="aspect=fixed;sketch=0;html=1;dashed=0;whitespace=wrap;verticalLabelPosition=bottom;verticalAlign=top;fillColor=#2875E2;strokeColor=#ffffff;points=[[0.005,0.63,0],[0.1,0.2,0],[0.9,0.2,0],[0.5,0,0],[0.995,0.63,0],[0.72,0.99,0],[0.5,1,0],[0.28,0.99,0]];shape=mxgraph.kubernetes.icon2;prIcon=pod" vertex="1" parent="cSVIJ6iVD3ClMPK3MHvh-5">
          <mxGeometry x="52.5" y="61" width="50" height="48" as="geometry" />
        </mxCell>
        <mxCell id="cSVIJ6iVD3ClMPK3MHvh-9" value="App - Namespace" style="swimlane;startSize=20;" vertex="1" parent="cSVIJ6iVD3ClMPK3MHvh-4">
          <mxGeometry x="270" y="60" width="220" height="260" as="geometry" />
        </mxCell>
        <mxCell id="cSVIJ6iVD3ClMPK3MHvh-15" value="App-svc" style="aspect=fixed;sketch=0;html=1;dashed=0;whitespace=wrap;verticalLabelPosition=bottom;verticalAlign=top;fillColor=#2875E2;strokeColor=#ffffff;points=[[0.005,0.63,0],[0.1,0.2,0],[0.9,0.2,0],[0.5,0,0],[0.995,0.63,0],[0.72,0.99,0],[0.5,1,0],[0.28,0.99,0]];shape=mxgraph.kubernetes.icon2;prIcon=svc" vertex="1" parent="cSVIJ6iVD3ClMPK3MHvh-9">
          <mxGeometry x="29" y="40" width="50" height="48" as="geometry" />
        </mxCell>
        <mxCell id="cSVIJ6iVD3ClMPK3MHvh-16" value="Webserver (proxy)&lt;br&gt;-Deployment" style="aspect=fixed;sketch=0;html=1;dashed=0;whitespace=wrap;verticalLabelPosition=bottom;verticalAlign=top;fillColor=#2875E2;strokeColor=#ffffff;points=[[0.005,0.63,0],[0.1,0.2,0],[0.9,0.2,0],[0.5,0,0],[0.995,0.63,0],[0.72,0.99,0],[0.5,1,0],[0.28,0.99,0]];shape=mxgraph.kubernetes.icon2;prIcon=pod" vertex="1" parent="cSVIJ6iVD3ClMPK3MHvh-9">
          <mxGeometry x="29.5" y="160" width="50" height="48" as="geometry" />
        </mxCell>
        <mxCell id="cSVIJ6iVD3ClMPK3MHvh-17" value="Webserver-svc&lt;br&gt;- as LoadBalancer" style="aspect=fixed;sketch=0;html=1;dashed=0;whitespace=wrap;verticalLabelPosition=bottom;verticalAlign=top;fillColor=#2875E2;strokeColor=#ffffff;points=[[0.005,0.63,0],[0.1,0.2,0],[0.9,0.2,0],[0.5,0,0],[0.995,0.63,0],[0.72,0.99,0],[0.5,1,0],[0.28,0.99,0]];shape=mxgraph.kubernetes.icon2;prIcon=svc" vertex="1" parent="cSVIJ6iVD3ClMPK3MHvh-9">
          <mxGeometry x="130.5" y="160" width="50" height="48" as="geometry" />
        </mxCell>
        <mxCell id="cSVIJ6iVD3ClMPK3MHvh-14" value="App-Deployment" style="aspect=fixed;sketch=0;html=1;dashed=0;whitespace=wrap;verticalLabelPosition=bottom;verticalAlign=top;fillColor=#2875E2;strokeColor=#ffffff;points=[[0.005,0.63,0],[0.1,0.2,0],[0.9,0.2,0],[0.5,0,0],[0.995,0.63,0],[0.72,0.99,0],[0.5,1,0],[0.28,0.99,0]];shape=mxgraph.kubernetes.icon2;prIcon=pod" vertex="1" parent="cSVIJ6iVD3ClMPK3MHvh-9">
          <mxGeometry x="130.5" y="40" width="50" height="48" as="geometry" />
        </mxCell>
        <mxCell id="cSVIJ6iVD3ClMPK3MHvh-19" style="edgeStyle=orthogonalEdgeStyle;rounded=0;orthogonalLoop=1;jettySize=auto;html=1;exitX=0.995;exitY=0.63;exitDx=0;exitDy=0;exitPerimeter=0;entryX=0.005;entryY=0.63;entryDx=0;entryDy=0;entryPerimeter=0;" edge="1" parent="cSVIJ6iVD3ClMPK3MHvh-9" source="cSVIJ6iVD3ClMPK3MHvh-15" target="cSVIJ6iVD3ClMPK3MHvh-14">
          <mxGeometry relative="1" as="geometry" />
        </mxCell>
        <mxCell id="cSVIJ6iVD3ClMPK3MHvh-20" style="edgeStyle=orthogonalEdgeStyle;rounded=0;orthogonalLoop=1;jettySize=auto;html=1;exitX=0.5;exitY=0;exitDx=0;exitDy=0;exitPerimeter=0;entryX=0.5;entryY=1;entryDx=0;entryDy=0;entryPerimeter=0;" edge="1" parent="cSVIJ6iVD3ClMPK3MHvh-9" source="cSVIJ6iVD3ClMPK3MHvh-16" target="cSVIJ6iVD3ClMPK3MHvh-15">
          <mxGeometry relative="1" as="geometry" />
        </mxCell>
        <mxCell id="cSVIJ6iVD3ClMPK3MHvh-21" style="edgeStyle=orthogonalEdgeStyle;rounded=0;orthogonalLoop=1;jettySize=auto;html=1;exitX=0.005;exitY=0.63;exitDx=0;exitDy=0;exitPerimeter=0;entryX=0.995;entryY=0.63;entryDx=0;entryDy=0;entryPerimeter=0;" edge="1" parent="cSVIJ6iVD3ClMPK3MHvh-9" source="cSVIJ6iVD3ClMPK3MHvh-17" target="cSVIJ6iVD3ClMPK3MHvh-16">
          <mxGeometry relative="1" as="geometry" />
        </mxCell>
        <mxCell id="cSVIJ6iVD3ClMPK3MHvh-22" value="Sync" style="shape=flexArrow;endArrow=classic;html=1;rounded=0;exitX=1;exitY=0.5;exitDx=0;exitDy=0;entryX=0;entryY=0.5;entryDx=0;entryDy=0;" edge="1" parent="cSVIJ6iVD3ClMPK3MHvh-4" source="cSVIJ6iVD3ClMPK3MHvh-5" target="cSVIJ6iVD3ClMPK3MHvh-9">
          <mxGeometry width="50" height="50" relative="1" as="geometry">
            <mxPoint x="230" y="210" as="sourcePoint" />
            <mxPoint x="280" y="160" as="targetPoint" />
          </mxGeometry>
        </mxCell>
        <mxCell id="cSVIJ6iVD3ClMPK3MHvh-23" value="Incoming Request" style="ellipse;whiteSpace=wrap;html=1;" vertex="1" parent="1">
          <mxGeometry x="760" y="350" width="60" height="60" as="geometry" />
        </mxCell>
        <mxCell id="cSVIJ6iVD3ClMPK3MHvh-24" value="" style="shape=flexArrow;endArrow=classic;html=1;rounded=0;exitX=0;exitY=0.5;exitDx=0;exitDy=0;entryX=0.995;entryY=0.63;entryDx=0;entryDy=0;entryPerimeter=0;" edge="1" parent="1" source="cSVIJ6iVD3ClMPK3MHvh-23" target="cSVIJ6iVD3ClMPK3MHvh-17">
          <mxGeometry width="50" height="50" relative="1" as="geometry">
            <mxPoint x="460" y="340" as="sourcePoint" />
            <mxPoint x="510" y="290" as="targetPoint" />
          </mxGeometry>
        </mxCell>
        <mxCell id="cSVIJ6iVD3ClMPK3MHvh-25" value="Gitlab" style="shape=cylinder3;whiteSpace=wrap;html=1;boundedLbl=1;backgroundOutline=1;size=15;" vertex="1" parent="1">
          <mxGeometry x="60" y="120" width="80" height="88" as="geometry" />
        </mxCell>
        <mxCell id="cSVIJ6iVD3ClMPK3MHvh-26" value="Sync&lt;br&gt;to&lt;br&gt;Manifest" style="shape=flexArrow;endArrow=classic;html=1;rounded=0;entryX=1;entryY=0;entryDx=0;entryDy=52.5;entryPerimeter=0;exitX=0;exitY=0.5;exitDx=0;exitDy=0;" edge="1" parent="1" source="cSVIJ6iVD3ClMPK3MHvh-5" target="cSVIJ6iVD3ClMPK3MHvh-25">
          <mxGeometry width="50" height="50" relative="1" as="geometry">
            <mxPoint x="460" y="340" as="sourcePoint" />
            <mxPoint x="510" y="290" as="targetPoint" />
          </mxGeometry>
        </mxCell>
        <mxCell id="cSVIJ6iVD3ClMPK3MHvh-27" value="Docker.io&lt;br&gt;(container registry)" style="shape=cylinder3;whiteSpace=wrap;html=1;boundedLbl=1;backgroundOutline=1;size=15;" vertex="1" parent="1">
          <mxGeometry x="45" y="380" width="110" height="80" as="geometry" />
        </mxCell>
        <mxCell id="cSVIJ6iVD3ClMPK3MHvh-28" value="Pull Image" style="shape=flexArrow;endArrow=classic;html=1;rounded=0;exitX=1;exitY=0.5;exitDx=0;exitDy=0;exitPerimeter=0;" edge="1" parent="1" source="cSVIJ6iVD3ClMPK3MHvh-27">
          <mxGeometry width="50" height="50" relative="1" as="geometry">
            <mxPoint x="460" y="340" as="sourcePoint" />
            <mxPoint x="500" y="420" as="targetPoint" />
          </mxGeometry>
        </mxCell>
        <mxCell id="cSVIJ6iVD3ClMPK3MHvh-29" value="Gitlab CI" style="rounded=0;whiteSpace=wrap;html=1;" vertex="1" parent="1">
          <mxGeometry x="40" y="280" width="120" height="40" as="geometry" />
        </mxCell>
        <mxCell id="cSVIJ6iVD3ClMPK3MHvh-30" value="Trigger" style="endArrow=classic;html=1;rounded=0;exitX=0.5;exitY=1;exitDx=0;exitDy=0;exitPerimeter=0;" edge="1" parent="1" source="cSVIJ6iVD3ClMPK3MHvh-25" target="cSVIJ6iVD3ClMPK3MHvh-29">
          <mxGeometry width="50" height="50" relative="1" as="geometry">
            <mxPoint x="485" y="340" as="sourcePoint" />
            <mxPoint x="535" y="290" as="targetPoint" />
          </mxGeometry>
        </mxCell>
        <mxCell id="cSVIJ6iVD3ClMPK3MHvh-31" value="Push Image" style="edgeStyle=orthogonalEdgeStyle;rounded=0;orthogonalLoop=1;jettySize=auto;html=1;exitX=0.5;exitY=1;exitDx=0;exitDy=0;entryX=0.5;entryY=0;entryDx=0;entryDy=0;entryPerimeter=0;" edge="1" parent="1" source="cSVIJ6iVD3ClMPK3MHvh-29" target="cSVIJ6iVD3ClMPK3MHvh-27">
          <mxGeometry relative="1" as="geometry" />
        </mxCell>
        <mxCell id="cSVIJ6iVD3ClMPK3MHvh-32" value="Developer" style="shape=umlActor;verticalLabelPosition=bottom;verticalAlign=top;html=1;outlineConnect=0;" vertex="1" parent="1">
          <mxGeometry x="-60" y="134" width="30" height="60" as="geometry" />
        </mxCell>
        <mxCell id="cSVIJ6iVD3ClMPK3MHvh-34" value="Push Action" style="edgeStyle=orthogonalEdgeStyle;rounded=0;orthogonalLoop=1;jettySize=auto;html=1;exitX=0.5;exitY=0.5;exitDx=0;exitDy=0;exitPerimeter=0;entryX=0;entryY=0.5;entryDx=0;entryDy=0;entryPerimeter=0;" edge="1" parent="1" source="cSVIJ6iVD3ClMPK3MHvh-32" target="cSVIJ6iVD3ClMPK3MHvh-25">
          <mxGeometry relative="1" as="geometry" />
        </mxCell>
        <mxCell id="cSVIJ6iVD3ClMPK3MHvh-35" value="Update Manifest" style="edgeStyle=orthogonalEdgeStyle;rounded=0;orthogonalLoop=1;jettySize=auto;html=1;exitX=0;exitY=0.5;exitDx=0;exitDy=0;entryX=0;entryY=0;entryDx=0;entryDy=58.5;entryPerimeter=0;" edge="1" parent="1" source="cSVIJ6iVD3ClMPK3MHvh-29" target="cSVIJ6iVD3ClMPK3MHvh-25">
          <mxGeometry x="-0.2287" relative="1" as="geometry">
            <mxPoint as="offset" />
          </mxGeometry>
        </mxCell>
      </root>
    </mxGraphModel>
  </diagram>
</mxfile>
